REM DIRINDEX 1\2,1\3,1\4,1\5
REM DIRNAME "folder01","folder02","folder03","folder04","folder05"
TITLE ""
FILE "1Q_j_2370-2383.mp3" MP3
  TRACK 01 AUDIO
    TITLE "0:"
    INDEX 01 00:00:00
  TRACK 02 AUDIO
    TITLE "3:cjc172_0812"
    INDEX 01 00:00:08
  TRACK 03 AUDIO
    TITLE "0:"
    INDEX 01 00:01:39
  TRACK 04 AUDIO
    TITLE "4:cjc172_0813"
    INDEX 01 00:01:45
  TRACK 05 AUDIO
    TITLE "0:"
    INDEX 01 00:04:02
  TRACK 06 AUDIO
    TITLE "5:cjc172_0814"
    INDEX 01 00:04:10
  TRACK 07 AUDIO
    TITLE "0:"
    INDEX 01 00:09:66
  TRACK 08 AUDIO
    TITLE "3:cjc172_0815"
    INDEX 01 00:10:42
  TRACK 09 AUDIO
    TITLE "0:"
    INDEX 01 00:12:13
  TRACK 10 AUDIO
    TITLE "4:cjc172_0816"
    INDEX 01 00:12:21
  TRACK 11 AUDIO
    TITLE "0:"
    INDEX 01 00:14:01
  TRACK 12 AUDIO
    TITLE "5:cjc172_0817"
    INDEX 01 00:14:10
  TRACK 13 AUDIO
    TITLE "0:"
    INDEX 01 00:20:37
  TRACK 14 AUDIO
    TITLE "3:cjc172_0818"
    INDEX 01 00:21:09
  TRACK 15 AUDIO
    TITLE "0:"
    INDEX 01 00:22:18
  TRACK 16 AUDIO
    TITLE "4:cjc172_0819"
    INDEX 01 00:22:26
  TRACK 17 AUDIO
    TITLE "0:"
    INDEX 01 00:29:28
  TRACK 18 AUDIO
    TITLE "5:cjc172_0820"
    INDEX 01 00:29:34
  TRACK 19 AUDIO
    TITLE "0:"
    INDEX 01 00:36:04
  TRACK 20 AUDIO
    TITLE "3:cjc172_0821"
    INDEX 01 00:36:51
  TRACK 21 AUDIO
    TITLE "0:"
    INDEX 01 00:37:74
  TRACK 22 AUDIO
    TITLE "4:cjc172_0822"
    INDEX 01 00:38:07
  TRACK 23 AUDIO
    TITLE "0:"
    INDEX 01 00:40:55
  TRACK 24 AUDIO
    TITLE "5:cjc172_0823"
    INDEX 01 00:40:61
  TRACK 25 AUDIO
    TITLE "0:"
    INDEX 01 00:47:04
  TRACK 26 AUDIO
    TITLE "3:cjc172_0824"
    INDEX 01 00:47:47
  TRACK 27 AUDIO
    TITLE "0:"
    INDEX 01 00:49:24
  TRACK 28 AUDIO
    TITLE "4:cjc172_0825"
    INDEX 01 00:49:36
  TRACK 29 AUDIO
    TITLE "0:"
    INDEX 01 00:53:22
  TRACK 30 AUDIO
    TITLE "5:cjc172_0826"
    INDEX 01 00:53:28
  TRACK 31 AUDIO
    TITLE "0:"
    INDEX 01 00:58:72
  TRACK 32 AUDIO
    TITLE "3:cjc172_0827"
    INDEX 01 00:59:40
  TRACK 33 AUDIO
    TITLE "0:"
    INDEX 01 01:00:60
  TRACK 34 AUDIO
    TITLE "4:cjc172_0828"
    INDEX 01 01:00:67
  TRACK 35 AUDIO
    TITLE "0:"
    INDEX 01 01:02:68
  TRACK 36 AUDIO
    TITLE "5:cjc172_0829"
    INDEX 01 01:02:74
  TRACK 37 AUDIO
    TITLE "0:"
    INDEX 01 01:07:34
  TRACK 38 AUDIO
    TITLE "3:cjc172_0830"
    INDEX 01 01:08:04
  TRACK 39 AUDIO
    TITLE "0:"
    INDEX 01 01:09:33
  TRACK 40 AUDIO
    TITLE "4:cjc172_0831"
    INDEX 01 01:09:41
  TRACK 41 AUDIO
    TITLE "0:"
    INDEX 01 01:11:57
  TRACK 42 AUDIO
    TITLE "5:cjc172_0832"
    INDEX 01 01:11:63
  TRACK 43 AUDIO
    TITLE "0:"
    INDEX 01 01:16:37
  TRACK 44 AUDIO
    TITLE "3:cjc172_0833"
    INDEX 01 01:17:07
  TRACK 45 AUDIO
    TITLE "0:"
    INDEX 01 01:18:32
  TRACK 46 AUDIO
    TITLE "4:cjc172_0834"
    INDEX 01 01:18:40
  TRACK 47 AUDIO
    TITLE "0:"
    INDEX 01 01:23:25
  TRACK 48 AUDIO
    TITLE "5:cjc172_0835"
    INDEX 01 01:23:33
  TRACK 49 AUDIO
    TITLE "0:"
    INDEX 01 01:29:47
  TRACK 50 AUDIO
    TITLE "3:cjc172_0836"
    INDEX 01 01:30:18
  TRACK 51 AUDIO
    TITLE "0:"
    INDEX 01 01:31:13
  TRACK 52 AUDIO
    TITLE "4:cjc172_0837"
    INDEX 01 01:31:31
  TRACK 53 AUDIO
    TITLE "0:"
    INDEX 01 01:33:41
  TRACK 54 AUDIO
    TITLE "5:cjc172_0838"
    INDEX 01 01:33:49
  TRACK 55 AUDIO
    TITLE "0:"
    INDEX 01 01:37:67
  TRACK 56 AUDIO
    TITLE "3:cjc172_0839"
    INDEX 01 01:38:39
  TRACK 57 AUDIO
    TITLE "0:"
    INDEX 01 01:39:50
  TRACK 58 AUDIO
    TITLE "4:cjc172_0840"
    INDEX 01 01:39:60
  TRACK 59 AUDIO
    TITLE "0:"
    INDEX 01 01:41:64
  TRACK 60 AUDIO
    TITLE "5:cjc172_0841"
    INDEX 01 01:41:72
  TRACK 61 AUDIO
    TITLE "0:"
    INDEX 01 01:46:20
  TRACK 62 AUDIO
    TITLE "3:cjc172_0842"
    INDEX 01 01:46:67
  TRACK 63 AUDIO
    TITLE "0:"
    INDEX 01 01:48:19
  TRACK 64 AUDIO
    TITLE "4:cjc172_0843"
    INDEX 01 01:48:27
  TRACK 65 AUDIO
    TITLE "0:"
    INDEX 01 01:50:22
  TRACK 66 AUDIO
    TITLE "5:cjc172_0844"
    INDEX 01 01:50:30
  TRACK 67 AUDIO
    TITLE "0:"
    INDEX 01 01:54:26
  TRACK 68 AUDIO
    TITLE "3:cjc172_0845"
    INDEX 01 01:54:71
  TRACK 69 AUDIO
    TITLE "0:"
    INDEX 01 01:56:21
  TRACK 70 AUDIO
    TITLE "4:cjc172_0846"
    INDEX 01 01:56:29
  TRACK 71 AUDIO
    TITLE "0:"
    INDEX 01 01:58:12
  TRACK 72 AUDIO
    TITLE "5:cjc172_0847"
    INDEX 01 01:58:20
  TRACK 73 AUDIO
    TITLE "0:"
    INDEX 01 02:04:12
  TRACK 74 AUDIO
    TITLE "3:cjc172_0848"
    INDEX 01 02:04:60
  TRACK 75 AUDIO
    TITLE "0:"
    INDEX 01 02:06:07
  TRACK 76 AUDIO
    TITLE "4:cjc172_0849"
    INDEX 01 02:06:19
  TRACK 77 AUDIO
    TITLE "0:"
    INDEX 01 02:10:23
  TRACK 78 AUDIO
    TITLE "5:cjc172_0850"
    INDEX 01 02:10:33
  TRACK 79 AUDIO
    TITLE "0:"
    INDEX 01 02:15:40
  TRACK 80 AUDIO
    TITLE "3:cjc172_0851"
    INDEX 01 02:16:10
  TRACK 81 AUDIO
    TITLE "0:"
    INDEX 01 02:17:60
  TRACK 82 AUDIO
    TITLE "4:cjc172_0852"
    INDEX 01 02:17:68
  TRACK 83 AUDIO
    TITLE "0:"
    INDEX 01 02:20:68
  TRACK 84 AUDIO
    TITLE "5:cjc172_0853"
    INDEX 01 02:21:01
  TRACK 85 AUDIO
    TITLE "0:"
    INDEX 01 02:25:62
